<?xml version="1.0" standalone="no"?>
<svg xmlns:xlink="http://www.w3.org/1999/xlink" id="wave" style="transform:rotate(0deg); transition: 0.3s" viewBox="0 0 1440 490" version="1.1" xmlns="http://www.w3.org/2000/svg"><defs><linearGradient id="sw-gradient-0" x1="0" x2="0" y1="1" y2="0"><stop stop-color="rgba(150.793, 21.755, 177.959, 1)" offset="0%"/><stop stop-color="rgba(133.034, 20.642, 168.852, 1)" offset="100%"/></linearGradient></defs><path style="transform:translate(0, 0px); opacity:1" fill="url(#sw-gradient-0)" d="M0,294L26.7,253.2C53.3,212,107,131,160,155.2C213.3,180,267,310,320,359.3C373.3,408,427,376,480,302.2C533.3,229,587,114,640,89.8C693.3,65,747,131,800,163.3C853.3,196,907,196,960,220.5C1013.3,245,1067,294,1120,261.3C1173.3,229,1227,114,1280,130.7C1333.3,147,1387,294,1440,343C1493.3,392,1547,343,1600,302.2C1653.3,261,1707,229,1760,236.8C1813.3,245,1867,294,1920,277.7C1973.3,261,2027,180,2080,122.5C2133.3,65,2187,33,2240,49C2293.3,65,2347,131,2400,130.7C2453.3,131,2507,65,2560,89.8C2613.3,114,2667,229,2720,228.7C2773.3,229,2827,114,2880,98C2933.3,82,2987,163,3040,179.7C3093.3,196,3147,147,3200,179.7C3253.3,212,3307,327,3360,326.7C3413.3,327,3467,212,3520,212.3C3573.3,212,3627,327,3680,367.5C3733.3,408,3787,376,3813,359.3L3840,343L3840,490L3813.3,490C3786.7,490,3733,490,3680,490C3626.7,490,3573,490,3520,490C3466.7,490,3413,490,3360,490C3306.7,490,3253,490,3200,490C3146.7,490,3093,490,3040,490C2986.7,490,2933,490,2880,490C2826.7,490,2773,490,2720,490C2666.7,490,2613,490,2560,490C2506.7,490,2453,490,2400,490C2346.7,490,2293,490,2240,490C2186.7,490,2133,490,2080,490C2026.7,490,1973,490,1920,490C1866.7,490,1813,490,1760,490C1706.7,490,1653,490,1600,490C1546.7,490,1493,490,1440,490C1386.7,490,1333,490,1280,490C1226.7,490,1173,490,1120,490C1066.7,490,1013,490,960,490C906.7,490,853,490,800,490C746.7,490,693,490,640,490C586.7,490,533,490,480,490C426.7,490,373,490,320,490C266.7,490,213,490,160,490C106.7,490,53,490,27,490L0,490Z"/></svg>