<?xml version="1.0" standalone="no"?>
<svg xmlns:xlink="http://www.w3.org/1999/xlink" id="wave" style="transform:rotate(0deg); transition: 0.3s" viewBox="0 0 1440 490" version="1.1" xmlns="http://www.w3.org/2000/svg"><defs><linearGradient id="sw-gradient-0" x1="0" x2="0" y1="1" y2="0"><stop stop-color="rgba(142, 22, 174, 1)" offset="0%"/><stop stop-color="rgba(193.897, 193.897, 193.897, 1)" offset="100%"/></linearGradient></defs><path style="transform:translate(0, 0px); opacity:1" fill="url(#sw-gradient-0)" d="M0,196L30,212.3C60,229,120,261,180,236.8C240,212,300,131,360,98C420,65,480,82,540,147C600,212,660,327,720,367.5C780,408,840,376,900,326.7C960,278,1020,212,1080,155.2C1140,98,1200,49,1260,65.3C1320,82,1380,163,1440,187.8C1500,212,1560,180,1620,171.5C1680,163,1740,180,1800,179.7C1860,180,1920,163,1980,130.7C2040,98,2100,49,2160,24.5C2220,0,2280,0,2340,0C2400,0,2460,0,2520,8.2C2580,16,2640,33,2700,106.2C2760,180,2820,310,2880,367.5C2940,425,3000,408,3060,334.8C3120,261,3180,131,3240,89.8C3300,49,3360,98,3420,122.5C3480,147,3540,147,3600,122.5C3660,98,3720,49,3780,57.2C3840,65,3900,131,3960,171.5C4020,212,4080,229,4140,236.8C4200,245,4260,245,4290,245L4320,245L4320,490L4290,490C4260,490,4200,490,4140,490C4080,490,4020,490,3960,490C3900,490,3840,490,3780,490C3720,490,3660,490,3600,490C3540,490,3480,490,3420,490C3360,490,3300,490,3240,490C3180,490,3120,490,3060,490C3000,490,2940,490,2880,490C2820,490,2760,490,2700,490C2640,490,2580,490,2520,490C2460,490,2400,490,2340,490C2280,490,2220,490,2160,490C2100,490,2040,490,1980,490C1920,490,1860,490,1800,490C1740,490,1680,490,1620,490C1560,490,1500,490,1440,490C1380,490,1320,490,1260,490C1200,490,1140,490,1080,490C1020,490,960,490,900,490C840,490,780,490,720,490C660,490,600,490,540,490C480,490,420,490,360,490C300,490,240,490,180,490C120,490,60,490,30,490L0,490Z"/></svg>